<svg width="24" height="24" xmlns="http://www.w3.org/2000/svg" xmlns:xlink="http://www.w3.org/1999/xlink" xml:space="preserve" overflow="hidden"><g transform="translate(-395 -239)"><path d="M411.075 256.275C410.7 255.9 410.475 255.375 410.475 254.85L410.325 254.7C408.05 256.1 405.15 255.95 403.025 254.325L402.95 254.375C402.675 254.575 402.5 254.9 402.5 255.25L402.5 257.5 411.5 257.5 411.5 256.7 411.075 256.275Z"/><path d="M413.375 248.875C414.6 248.675 415.425 247.5 415.225 246.275 415.025 245.05 413.85 244.225 412.625 244.425 412.275 244.475 411.95 244.625 411.675 244.825 412.7 245.925 413.3 247.35 413.375 248.875Z"/><path d="M417.05 250.85C416.4 250.35 415.65 249.975 414.85 249.8 414.375 249.65 413.875 249.575 413.375 249.525 413.325 250.6 413 251.65 412.425 252.575L412.575 252.725C413.1 252.725 413.625 252.95 414 253.325L414.675 254 417.5 254 417.5 251.75C417.5 251.4 417.35 251.05 417.05 250.85Z"/><path d="M415.85 256.225 413.5 253.85C413.175 253.55 412.75 253.4 412.3 253.5L411.45 252.675C412.225 251.675 412.625 250.475 412.625 249.225 412.65 246.075 410.1 243.5 406.925 243.475 403.75 243.45 401.225 246 401.225 249.15 401.225 252.3 403.75 254.875 406.925 254.9 408.175 254.9 409.4 254.5 410.425 253.725L411.275 254.55C411.2 254.975 411.325 255.425 411.625 255.75L414 258.125C414.5 258.65 415.35 258.675 415.875 258.175 416.4 257.675 416.425 256.825 415.925 256.3 415.9 256.275 415.875 256.25 415.85 256.225L415.85 256.225ZM406.95 244.65C409.475 244.65 411.5 246.675 411.5 249.2 411.5 250.275 411.125 251.325 410.425 252.125 409.95 251.9 409.475 251.725 408.975 251.6 408.3 251.4 407.6 251.275 406.9 251.275 406.2 251.275 405.5 251.4 404.825 251.6 404.35 251.725 403.9 251.9 403.475 252.15 401.85 250.25 402.075 247.375 403.975 245.75 404.8 245.025 405.85 244.65 406.95 244.65Z"/><path d="M409.425 248.2C409.425 249.595 408.295 250.725 406.9 250.725 405.505 250.725 404.375 249.595 404.375 248.2 404.375 246.805 405.505 245.675 406.9 245.675 408.295 245.675 409.425 246.805 409.425 248.2Z"/><path d="M400.5 249.525C400.05 249.575 399.6 249.65 399.15 249.8 398.375 250.025 397.625 250.4 396.95 250.85 396.65 251.05 396.5 251.4 396.5 251.75L396.5 254 401.9 254C402 253.85 402.125 253.725 402.275 253.625 401.2 252.5 400.575 251.05 400.5 249.525Z"/><path d="M400.5 248.85C400.575 247.325 401.2 245.9 402.25 244.775 401.225 244.075 399.825 244.35 399.125 245.4 398.425 246.45 398.7 247.825 399.75 248.525 399.975 248.675 400.225 248.775 400.5 248.85Z"/></g></svg>