<svg width="24" height="25" xmlns="http://www.w3.org/2000/svg" xmlns:xlink="http://www.w3.org/1999/xlink" xml:space="preserve" overflow="hidden"><g transform="translate(-754 -58)"><path d="M12.75 11 18 11C18.425 11 18.75 10.675 18.75 10.25 18.75 9.825 18.425 9.5 18 9.5L6.5 9.5C6.075 9.5 5.75 9.825 5.75 10.25 5.75 10.675 6.075 11 6.5 11L11.25 11 11.25 17.25 9.75 17.25 9.75 18.75 14.25 18.75 14.25 17.25 12.75 17.25 12.75 11Z" fill="#FFFFFF" transform="matrix(1 0 0 1.04167 754 58)"/><path d="M8.775 13 4.175 13 3.5 6.175 3.5 6.175C3.45 5.8 3.15 5.5 2.75 5.5 2.325 5.5 2 5.825 2 6.25 2 6.275 2 6.3 2 6.325L2 6.325 2.75 13.725 2.025 18.75 3.55 18.75 3.8 17 7.25 17 7.25 18.75 8.75 18.75 8.75 14.5 8.775 14.5C9.2 14.5 9.525 14.175 9.525 13.75 9.525 13.325 9.175 13 8.775 13ZM7.25 16 3.925 16 4.15 14.5 7.25 14.5 7.25 16Z" fill="#FFFFFF" transform="matrix(1 0 0 1.04167 754 58)"/><path d="M22 6.325C22 6.3 22 6.275 22 6.25 22 5.825 21.675 5.5 21.25 5.5 20.875 5.5 20.55 5.8 20.5 6.175L20.5 6.175 19.825 13 15.225 13C14.8 13 14.475 13.325 14.475 13.75 14.475 14.175 14.8 14.5 15.225 14.5L15.25 14.5 15.25 18.75 16.75 18.75 16.75 17 20.2 17 20.45 18.75 21.975 18.75 21.25 13.725 22 6.325 22 6.325ZM16.75 16 16.75 14.5 19.85 14.5 20.075 16 16.75 16Z" fill="#FFFFFF" transform="matrix(1 0 0 1.04167 754 58)"/></g></svg>