<svg width="2794" height="727" xmlns="http://www.w3.org/2000/svg" xmlns:xlink="http://www.w3.org/1999/xlink" xml:space="preserve" overflow="hidden"><g transform="translate(-130 -196)"><path d="M618.162 581.34C573.197 583.507 539.019 629.85 541.821 684.849 544.624 739.848 583.347 782.676 628.312 780.497 673.28 778.331 707.45 731.987 704.652 676.988 701.845 621.99 663.126 579.161 618.162 581.34ZM616.248 543.79C678.162 540.794 731.49 599.769 735.352 675.502 736.798 703.9 731.082 730.627 720.108 753.102L716.161 759.637 766.902 823.648 738.014 865.681 683.87 797.382 673.314 805.162C660.255 812.745 645.704 817.298 630.225 818.047 568.307 821.043 514.983 762.069 511.124 686.335 507.265 610.603 554.329 546.775 616.248 543.79Z" fill="#E8E8E8" fill-rule="evenodd"/><path d="M435.755 615.75 500.663 615.75 496.933 624.95 494.245 636.548 435.755 636.548ZM435.755 562.731 529.698 562.731 526.488 566.27 515.857 583.517 435.755 583.517ZM302.301 537.253 376.442 538.809C376.442 570.524 363.359 599.634 341.552 617.307ZM532.575 468.635 556.999 468.635C558.307 468.635 559.179 469.673 559.179 471.229L559.179 528.411C559.179 529.979 558.307 531.016 556.999 531.016L532.575 531.016C531.267 531.016 530.394 529.979 530.394 528.411L530.394 471.229C530.394 470.192 531.267 468.635 532.575 468.635ZM438.372 433.796 462.795 433.796C464.103 433.796 464.975 434.845 464.975 436.402L464.975 528.941C464.975 530.497 464.103 531.535 462.795 531.535L438.372 531.535C437.063 531.535 436.191 530.497 436.191 528.941L436.191 436.402C435.755 434.845 437.063 433.796 438.372 433.796ZM283.983 431.202 287.472 532.053 329.776 619.393C316.692 628.224 302.301 632.905 287.472 632.905 240.806 632.905 202.864 587.678 202.864 532.053 202.864 477.985 238.626 433.277 283.983 431.202ZM304.481 425.484 305.353 515.936 380.803 518.542C377.75 483.184 359.433 452.518 334.137 436.402 328.904 433.277 323.234 430.683 317.565 428.608 312.767 427.559 308.842 426.521 304.481 425.484ZM485.474 414.048 509.897 414.048C511.205 414.048 512.078 415.085 512.078 416.642L512.078 528.941C512.078 530.497 511.205 531.535 509.897 531.535L485.474 531.535C484.165 531.535 483.293 530.497 483.293 528.941L483.293 416.642C483.293 415.085 484.165 414.048 485.474 414.048ZM294.014 412.491 299.684 413.01C306.662 413.529 313.64 415.085 320.182 417.161 326.723 419.247 332.83 422.36 338.935 426.003 369.028 444.713 389.962 482.146 391.706 524.779L392.142 531.535 386.473 531.535 300.555 528.411 295.758 528.411 294.886 522.174 294.014 419.247ZM163.612 286.681 634.193 286.681C652.074 286.681 666.902 304.354 666.902 325.67L666.902 522.231 651.796 515.948 635.065 513.7 635.065 359.979 162.303 359.979 162.303 694.766 486.25 694.766 486.096 696.807 488.722 731.681 163.612 731.681C145.73 731.681 130.902 714.008 130.902 692.692L130.902 325.67C130.902 304.354 145.73 286.681 163.612 286.681Z" fill="#FFC000" fill-rule="evenodd"/><text fill="#FFFFFF" font-family="Bahnschrift SemiLight Condensed,Bahnschrift SemiLight Condensed_MSFontService,sans-serif" font-weight="300" font-stretch="condensed" font-size="220" transform="matrix(1 0 0 1 800.401 482)">Insightful </text><text fill="#FFC000" font-family="Bahnschrift SemiLight Condensed,Bahnschrift SemiLight Condensed_MSFontService,sans-serif" font-weight="300" font-stretch="condensed" font-size="220" transform="matrix(1 0 0 1 1575.3 482)">Tech</text><text fill="#FFFFFF" font-family="Bahnschrift SemiLight Condensed,Bahnschrift SemiLight Condensed_MSFontService,sans-serif" font-weight="300" font-stretch="condensed" font-size="220" transform="matrix(1 0 0 1 1855.14 482)"> </text><text fill="#FFFFFF" font-family="Bahnschrift SemiLight Condensed,Bahnschrift SemiLight Condensed_MSFontService,sans-serif" font-weight="300" font-stretch="condensed" font-size="220" transform="matrix(1 0 0 1 1999.25 482)">Consulting</text><text fill="#FFFFFF" font-family="Bahnschrift SemiLight Condensed,Bahnschrift SemiLight Condensed_MSFontService,sans-serif" font-weight="300" font-stretch="condensed" font-size="220" transform="matrix(1 0 0 1 2667.54 482)"> </text><text fill="#FFC000" font-family="Bahnschrift SemiLight Condensed,Bahnschrift SemiLight Condensed_MSFontService,sans-serif" font-weight="300" font-stretch="condensed" font-size="220" transform="matrix(1 0 0 1 800.401 746)">Power BI</text><text fill="#FFFFFF" font-family="Bahnschrift SemiLight Condensed,Bahnschrift SemiLight Condensed_MSFontService,sans-serif" font-weight="300" font-stretch="condensed" font-size="220" transform="matrix(1 0 0 1 1421.44 746)"> </text><text fill="#FFFFFF" font-family="Bahnschrift SemiLight Condensed,Bahnschrift SemiLight Condensed_MSFontService,sans-serif" font-weight="300" font-stretch="condensed" font-size="220" transform="matrix(1 0 0 1 1565.56 746)">Reports</text><text fill="#FFFFFF" font-family="Bahnschrift SemiLight Condensed,Bahnschrift SemiLight Condensed_MSFontService,sans-serif" font-weight="300" font-stretch="condensed" font-size="220" transform="matrix(1 0 0 1 2024.15 746)"> </text></g></svg>