<svg width="747" height="504" xmlns="http://www.w3.org/2000/svg" xmlns:xlink="http://www.w3.org/1999/xlink" xml:space="preserve" overflow="hidden"><defs><clipPath id="clip0"><rect x="1987" y="181" width="747" height="504"/></clipPath></defs><g clip-path="url(#clip0)" transform="translate(-1987 -181)"><path d="M2558.55 437.534C2505.69 439.419 2465.51 479.63 2468.81 527.349 2472.1 575.068 2517.62 612.224 2570.48 610.339 2623.34 608.454 2663.52 568.243 2660.23 520.524 2656.93 472.806 2611.41 435.65 2558.55 437.534ZM2556.3 404.957C2629.09 402.362 2691.77 453.527 2696.31 519.238 2698.01 543.88 2691.3 567.068 2678.4 586.563L2673.75 592.241 2733.41 647.777 2699.45 684.251 2635.79 624.988 2623.39 631.738C2608.03 638.321 2590.93 642.268 2572.73 642.917 2499.94 645.512 2437.26 594.346 2432.72 528.636 2428.18 462.925 2483.51 407.552 2556.3 404.957Z" fill-rule="evenodd"/><path d="M2344.75 467.181 2420.92 467.181 2416.54 475.182 2413.38 485.265 2344.75 485.265ZM2344.75 421.067 2454.99 421.067 2451.22 424.15 2438.75 439.151 2344.75 439.151ZM2188.14 398.913 2275.14 400.27C2275.14 427.848 2259.79 453.166 2234.2 468.537ZM2458.37 339.236 2487.03 339.236C2488.56 339.236 2489.59 340.14 2489.59 341.497L2489.59 391.228C2489.59 392.584 2488.56 393.488 2487.03 393.488L2458.37 393.488C2456.83 393.488 2455.81 392.584 2455.81 391.228L2455.81 341.497C2455.81 340.592 2456.83 339.236 2458.37 339.236ZM2347.82 308.945 2376.48 308.945C2378.01 308.945 2379.04 309.849 2379.04 311.206L2379.04 391.68C2379.04 393.036 2378.01 393.94 2376.48 393.94L2347.82 393.94C2346.28 393.94 2345.26 393.036 2345.26 391.68L2345.26 311.206C2344.75 309.849 2346.28 308.945 2347.82 308.945ZM2166.64 306.685 2170.74 394.393 2220.38 470.346C2205.03 478.031 2188.14 482.101 2170.74 482.101 2115.97 482.101 2071.45 442.768 2071.45 394.393 2071.45 347.374 2113.41 308.493 2166.64 306.685ZM2190.7 301.712 2191.72 380.377 2280.26 382.638C2276.68 351.895 2255.18 325.221 2225.5 311.206 2219.36 308.493 2212.7 306.232 2206.05 304.424 2200.42 303.52 2195.81 302.616 2190.7 301.712ZM2403.09 291.765 2431.75 291.765C2433.29 291.765 2434.31 292.669 2434.31 294.026L2434.31 391.68C2434.31 393.036 2433.29 393.94 2431.75 393.94L2403.09 393.94C2401.56 393.94 2400.53 393.036 2400.53 391.68L2400.53 294.026C2400.53 292.669 2401.56 291.765 2403.09 291.765ZM2178.41 290.409 2185.07 290.861C2193.25 291.313 2201.44 292.669 2209.12 294.478 2216.8 296.286 2223.96 298.999 2231.13 302.164 2266.44 318.439 2291.01 350.991 2293.06 388.063L2293.57 393.94 2286.91 393.94 2186.09 391.228 2180.46 391.228 2179.44 385.803 2178.41 296.286ZM2025.38 181 2577.61 181C2598.6 181 2616 196.372 2616 214.908L2616 385.848 2598.27 380.389 2578.64 378.426 2578.64 244.747 2023.85 244.747 2023.85 535.901 2404 535.901 2403.82 537.673 2406.9 568 2025.38 568C2004.4 568 1987 552.628 1987 534.092L1987 214.908C1987 196.372 2004.4 181 2025.38 181Z" fill="#FFFFFF" fill-rule="evenodd"/></g></svg>