<svg width="24" height="24" xmlns="http://www.w3.org/2000/svg" xmlns:xlink="http://www.w3.org/1999/xlink" xml:space="preserve" overflow="hidden"><g transform="translate(-781 -217)"><path d="M800 232 786 232 786 223.5 800 223.5ZM801.5 223C801.5 222.448 801.052 222 800.5 222L785.5 222C784.948 222 784.5 222.448 784.5 223L784.5 233.5 801.5 233.5Z" fill="#FFFFFF"/><path d="M794.5 234.5 794.5 234.75C794.509 234.88 794.411 234.991 794.281 235 794.271 235.001 794.26 235.001 794.25 235L791.75 235C791.62 235.009 791.509 234.911 791.5 234.781 791.499 234.771 791.499 234.76 791.5 234.75L791.5 234.5 781.5 234.5 781.5 235C781.5 235.552 781.948 236 782.5 236L803.5 236C804.052 236 804.5 235.552 804.5 235L804.5 234.5Z" fill="#FFFFFF"/><path d="M793 224.25C791.067 224.25 789.5 225.817 789.5 227.75 789.5 229.683 791.067 231.25 793 231.25 794.933 231.25 796.5 229.683 796.5 227.75 796.5 225.817 794.933 224.25 793 224.25ZM793.25 228 794.398 228C794.267 228.862 793.865 229.66 793.25 230.277ZM793.25 227.5 793.25 225.22C793.865 225.838 794.268 226.637 794.398 227.5ZM792.75 227.5 791.64 227.5C791.764 226.652 792.153 225.865 792.75 225.25ZM792.75 228 792.75 230.25C792.154 229.635 791.766 228.848 791.64 228ZM791.138 227.5 790.068 227.5C790.178 226.191 791.145 225.114 792.435 224.863 791.722 225.574 791.266 226.501 791.138 227.5ZM791.138 228C791.266 229 791.724 229.929 792.44 230.64 791.148 230.389 790.18 229.311 790.068 228ZM794.9 228 795.932 228C795.823 229.295 794.877 230.364 793.605 230.63 794.317 229.922 794.773 228.996 794.9 228ZM794.9 227.5C794.772 226.506 794.319 225.583 793.612 224.872 794.88 225.141 795.823 226.209 795.932 227.5Z" fill="#FFFFFF"/></g></svg>