<svg width="24" height="24" xmlns="http://www.w3.org/2000/svg" xmlns:xlink="http://www.w3.org/1999/xlink" xml:space="preserve" overflow="hidden"><g transform="translate(-329 -348)"><path d="M352.062 360.25 349.432 360.25C349.37 360.25 349.308 360.264 349.251 360.29L349.251 357.75 345.751 357.75 345.751 355.75 342 355.75 342 357.75 338.5 357.75 338.5 359.75 335 359.75 335 361.75 333.75 361.75 333.75 357 333.996 357C334.15 357 334.288 356.907 334.345 356.764L335.044 355.014C335.121 354.822 335.028 354.604 334.836 354.527 334.792 354.509 334.744 354.5 334.697 354.5L331.75 354.5 331.75 352.75C331.75 352.612 331.638 352.5 331.5 352.5 331.362 352.5 331.25 352.612 331.25 352.75L331.25 354.5 330.625 354.5C330.418 354.5 330.25 354.668 330.25 354.875L330.25 356.625C330.25 356.832 330.418 357 330.625 357L331 357 331 361.75 329.939 361.75C329.698 361.75 329.502 361.946 329.502 362.187 329.502 362.243 329.512 362.298 329.533 362.35L331.183 366.475C331.249 366.641 331.41 366.75 331.589 366.75L346.437 366.75C346.553 366.75 346.664 366.704 346.746 366.622L352.371 360.997C352.542 360.826 352.542 360.549 352.371 360.378 352.289 360.296 352.178 360.25 352.062 360.25ZM348.751 360.75 347.879 361.622C347.797 361.704 347.686 361.75 347.569 361.75L345.751 361.75 345.751 360.25 348.751 360.25ZM345.251 358.25 345.251 359.75 342.501 359.75 342.501 358.25ZM345.251 360.25 345.251 361.75 342.501 361.75 342.501 360.25ZM342.001 361.75 339.001 361.75 339.001 360.25 342.001 360.25ZM348.751 359.75 345.751 359.75 345.751 358.25 348.751 358.25ZM342.5 356.25 345.25 356.25 345.25 357.75 342.5 357.75ZM342 359.75 339 359.75 339 358.25 342 358.25ZM335.5 360.25 338.5 360.25 338.5 361.75 335.5 361.75ZM330.75 356.5 330.75 355 334.509 355C334.51 355 334.511 355.001 334.511 355.003 334.511 355.003 334.511 355.003 334.511 355.004L333.912 356.5 330.75 356.5ZM331.5 357 333.25 357 333.25 361.75 331.5 361.75ZM346.41 366.25 331.632 366.25 330.033 362.254C330.032 362.252 330.033 362.251 330.034 362.25 330.034 362.25 330.035 362.25 330.035 362.25L347.569 362.25C347.818 362.25 348.057 362.151 348.233 361.975L349.457 360.75 351.905 360.75C351.906 360.75 351.907 360.751 351.907 360.753 351.907 360.753 351.907 360.754 351.907 360.754Z" fill="#FFFFFF"/></g></svg>