<svg width="24" height="24" xmlns="http://www.w3.org/2000/svg" xmlns:xlink="http://www.w3.org/1999/xlink" xml:space="preserve" overflow="hidden"><g transform="translate(-240 -71)"><path d="M262 85.75 262 74.75 258.5 74.75 258.5 74C258.776 74 259 73.7762 259 73.5 259 73.2239 258.776 73 258.5 73L257.5 73C257.224 73 257 73.2239 257 73.5 257 73.7762 257.224 74 257.5 74L257.5 74.75 252.5 74.75 252.5 74C252.776 74 253 73.7762 253 73.5 253 73.2239 252.776 73 252.5 73L251.5 73C251.224 73 251 73.2239 251 73.5 251 73.7762 251.224 74 251.5 74L251.5 74.75 246.5 74.75 246.5 74C246.776 74 247 73.7762 247 73.5 247 73.2239 246.776 73 246.5 73L245.5 73C245.224 73 245 73.2239 245 73.5 245 73.7762 245.224 74 245.5 74L245.5 74.75 242 74.75 242 85.75 242.625 85.75 242.625 86.75 242.5 86.75C242.224 86.75 242 86.9738 242 87.25 242 87.5262 242.224 87.75 242.5 87.75L245.25 87.75 245.25 93 246.75 93 246.75 87.75 257.25 87.75 257.25 93 258.75 93 258.75 87.75 261.5 87.75C261.776 87.75 262 87.5262 262 87.25 262 86.9738 261.776 86.75 261.5 86.75L261.375 86.75 261.375 85.75ZM254.625 85.75 254.625 86.75 253.53 86.75 254.53 85.75ZM255.375 86.75 255.375 85.75 256.47 85.75 255.47 86.75ZM252.47 86.75 252.375 86.75 252.375 85.75 253.47 85.75ZM251.625 85.75 251.625 86.75 250.53 86.75 251.53 85.75ZM249.47 86.75 249.375 86.75 249.375 85.75 250.47 85.75ZM248.625 85.75 248.625 86.75 247.53 86.75 248.53 85.75ZM246.47 86.75 246.375 86.75 246.375 85.75 247.47 85.75ZM245.625 85.75 245.625 86.75 244.53 86.75 245.53 85.75ZM257.53 85.75 257.625 85.75 257.625 86.75 256.53 86.75ZM258.375 86.75 258.375 85.75 259.47 85.75 258.47 86.75ZM243 75.75 261 75.75 261 84.75 243 84.75ZM243.375 85.75 244.47 85.75 243.47 86.75 243.375 86.75ZM260.625 86.75 259.53 86.75 260.53 85.75 260.625 85.75Z"/></g></svg>