<svg width="24" height="24" xmlns="http://www.w3.org/2000/svg" xmlns:xlink="http://www.w3.org/1999/xlink" xml:space="preserve" overflow="hidden"><g transform="translate(-347 -347)"><path d="M366 355 366 357 364 357 364 355 366 355ZM352 364 354 364 354 366 352 366 352 364ZM357 355 357 357 355 357 355 355 357 355ZM360 355 360 357 358 357 358 355 360 355ZM363 360 361 360 361 358 363 358 363 360ZM364 360 364 358 366 358 366 360 364 360ZM364 363 364 361 366 361 366 363 364 363ZM358 364 360 364 360 366 358 366 358 364ZM357 364 357 366 355 366 355 364 357 364ZM355 361 357 361 357 363 355 363 355 361ZM354 361 354 363 352 363 352 361 354 361ZM354 358 354 360 352 360 352 358 354 358ZM357 360 355 360 355 358 357 358 357 360ZM358 360 358 358 360 358 360 360 358 360ZM360 363 358 363 358 361 360 361 360 363ZM361 363 361 361 363 361 363 363 361 363ZM363 355 363 357 361 357 361 355 363 355ZM350.5 353.5 350.5 367.5 367.5 367.5 367.5 353.5 350.5 353.5Z" fill="#FFFFFF"/><path d="M350.5 350.5 367.5 350.5 367.5 352.5 350.5 352.5Z" fill="#FFFFFF"/></g></svg>