<svg width="24" height="24" xmlns="http://www.w3.org/2000/svg" xmlns:xlink="http://www.w3.org/1999/xlink" xml:space="preserve" overflow="hidden"><g transform="translate(-536 -438)"><path d="M559.062 450.25 556.432 450.25C556.37 450.25 556.308 450.264 556.251 450.29L556.251 447.75 552.751 447.75 552.751 445.75 549 445.75 549 447.75 545.5 447.75 545.5 449.75 542 449.75 542 451.75 540.75 451.75 540.75 447 540.996 447C541.15 447 541.288 446.907 541.344 446.764L542.044 445.014C542.121 444.822 542.028 444.604 541.836 444.527 541.792 444.509 541.744 444.5 541.697 444.5L538.75 444.5 538.75 442.75C538.75 442.612 538.638 442.5 538.5 442.5 538.362 442.5 538.25 442.612 538.25 442.75L538.25 444.5 537.625 444.5C537.418 444.5 537.25 444.668 537.25 444.875L537.25 446.625C537.25 446.832 537.418 447 537.625 447L538 447 538 451.75 536.939 451.75C536.698 451.75 536.502 451.946 536.502 452.187 536.502 452.243 536.512 452.298 536.533 452.35L538.183 456.475C538.249 456.641 538.41 456.75 538.589 456.75L553.437 456.75C553.553 456.75 553.664 456.704 553.746 456.622L559.371 450.997C559.542 450.826 559.542 450.549 559.371 450.378 559.289 450.296 559.178 450.25 559.062 450.25ZM555.751 450.75 554.879 451.622C554.797 451.704 554.686 451.75 554.57 451.75L552.752 451.75 552.752 450.25 555.752 450.25ZM552.251 448.25 552.251 449.75 549.501 449.75 549.501 448.25ZM552.251 450.25 552.251 451.75 549.501 451.75 549.501 450.25ZM549.001 451.75 546.001 451.75 546.001 450.25 549.001 450.25ZM555.751 449.75 552.751 449.75 552.751 448.25 555.751 448.25ZM549.5 446.25 552.25 446.25 552.25 447.75 549.5 447.75ZM549 449.75 546 449.75 546 448.25 549 448.25ZM542.5 450.25 545.5 450.25 545.5 451.75 542.5 451.75ZM537.75 446.5 537.75 445 541.509 445C541.51 445 541.511 445.001 541.511 445.003 541.511 445.003 541.511 445.003 541.511 445.004L540.912 446.5 537.75 446.5ZM538.5 447 540.25 447 540.25 451.75 538.5 451.75ZM553.41 456.25 538.631 456.25 537.033 452.254C537.032 452.252 537.033 452.251 537.034 452.25 537.034 452.25 537.035 452.25 537.035 452.25L554.57 452.25C554.818 452.25 555.057 452.151 555.232 451.975L556.458 450.75 558.905 450.75C558.906 450.75 558.907 450.751 558.907 450.753 558.907 450.753 558.907 450.754 558.907 450.754Z" fill="#3A3A3A"/></g></svg>