<svg width="24" height="24" xmlns="http://www.w3.org/2000/svg" xmlns:xlink="http://www.w3.org/1999/xlink" xml:space="preserve" overflow="hidden"><g transform="translate(-288 -206)"><path d="M302.5 210.859C302.433 210.893 302.368 210.928 302.303 210.967 301.078 211.69 300.433 213.1 300.688 214.5L302.5 214.5Z" fill="#FFFFFF"/><path d="M300.915 215.25C301.666 216.967 303.666 217.75 305.383 216.999 305.505 216.946 305.625 216.885 305.741 216.817 305.743 216.815 305.746 216.813 305.75 216.811L305.75 215.25Z" fill="#FFFFFF"/><path d="M301.037 208.811C301.073 208.789 301.112 208.771 301.149 208.75L296.75 208.75 296.75 214.5 298.163 214.5C297.926 212.205 299.049 209.982 301.037 208.811ZM297.5 209.5 298.5 209.5 298.5 210.5 297.5 210.5Z" fill="#FFFFFF"/><path d="M305.75 219.666 305.677 219.542C305.141 219.7 304.584 219.78 304.025 219.779 302.531 219.776 301.093 219.208 300 218.19L300 221 305.75 221Z" fill="#FFFFFF"/><path d="M307.598 223.85 306.364 221.75 303.25 221.75 303.25 227.5 308.75 227.5 308.75 224.739C308.265 224.603 307.852 224.284 307.598 223.85ZM305 223.5 304 223.5 304 222.5 305 222.5Z" fill="#FFFFFF"/><path d="M296.75 227.5 302.5 227.5 302.5 221.75 296.75 221.75ZM297.5 222.5 298.5 222.5 298.5 223.5 297.5 223.5Z" fill="#FFFFFF"/><path d="M290.25 227.5 296 227.5 296 221.75 290.25 221.75ZM291 222.5 292 222.5 292 223.5 291 223.5Z" fill="#FFFFFF"/><path d="M299.25 217.343C299.141 217.193 299.036 217.038 298.941 216.877 298.643 216.37 298.423 215.822 298.288 215.25L293.5 215.25 293.5 221 299.25 221ZM295.25 217 294.25 217 294.25 216 295.25 216Z" fill="#FFFFFF"/><path d="M308.456 211.286C307.02 208.836 303.869 208.014 301.419 209.45 298.969 210.887 298.146 214.037 299.583 216.488 300.886 218.711 303.634 219.627 306.011 218.629L306.642 219.704C306.472 220.065 306.492 220.487 306.694 220.831L308.244 223.469C308.59 224.041 309.335 224.225 309.908 223.879 310.471 223.539 310.659 222.812 310.333 222.241L308.783 219.604C308.581 219.26 308.223 219.038 307.825 219.01L307.194 217.934C309.217 216.345 309.756 213.507 308.456 211.286ZM300.45 215.99C299.291 214.018 299.95 211.479 301.923 210.32 303.896 209.161 306.434 209.82 307.594 211.793 308.753 213.766 308.093 216.304 306.121 217.463 306.121 217.463 306.121 217.464 306.121 217.464 304.147 218.62 301.611 217.961 300.45 215.99Z" fill="#FFFFFF"/></g></svg>